<svg id="visual" viewBox="0 0 960 540" width="960" height="540" xmlns="http://www.w3.org/2000/svg" xmlns:xlink="http://www.w3.org/1999/xlink" version="1.1"><rect x="0" y="0" width="960" height="540" fill="#eaeaea"></rect><path d="M0 400L17.8 405.2C35.7 410.3 71.3 420.7 106.8 426.3C142.3 432 177.7 433 213.2 434.2C248.7 435.3 284.3 436.7 320 436.5C355.7 436.3 391.3 434.7 426.8 428.5C462.3 422.3 497.7 411.7 533.2 412.5C568.7 413.3 604.3 425.7 640 427C675.7 428.3 711.3 418.7 746.8 419.5C782.3 420.3 817.7 431.7 853.2 433.7C888.7 435.7 924.3 428.3 942.2 424.7L960 421L960 541L942.2 541C924.3 541 888.7 541 853.2 541C817.7 541 782.3 541 746.8 541C711.3 541 675.7 541 640 541C604.3 541 568.7 541 533.2 541C497.7 541 462.3 541 426.8 541C391.3 541 355.7 541 320 541C284.3 541 248.7 541 213.2 541C177.7 541 142.3 541 106.8 541C71.3 541 35.7 541 17.8 541L0 541Z" fill="#715df2"></path><path d="M0 445L17.8 449.2C35.7 453.3 71.3 461.7 106.8 466.2C142.3 470.7 177.7 471.3 213.2 471C248.7 470.7 284.3 469.3 320 468.2C355.7 467 391.3 466 426.8 463.7C462.3 461.3 497.7 457.7 533.2 454.8C568.7 452 604.3 450 640 448.3C675.7 446.7 711.3 445.3 746.8 446.5C782.3 447.7 817.7 451.3 853.2 456.5C888.7 461.7 924.3 468.3 942.2 471.7L960 475L960 541L942.2 541C924.3 541 888.7 541 853.2 541C817.7 541 782.3 541 746.8 541C711.3 541 675.7 541 640 541C604.3 541 568.7 541 533.2 541C497.7 541 462.3 541 426.8 541C391.3 541 355.7 541 320 541C284.3 541 248.7 541 213.2 541C177.7 541 142.3 541 106.8 541C71.3 541 35.7 541 17.8 541L0 541Z" fill="#6940fa"></path><path d="M0 486L17.8 487.3C35.7 488.7 71.3 491.3 106.8 495.5C142.3 499.7 177.7 505.3 213.2 505.2C248.7 505 284.3 499 320 500C355.7 501 391.3 509 426.8 510.2C462.3 511.3 497.7 505.7 533.2 500.7C568.7 495.7 604.3 491.3 640 489.3C675.7 487.3 711.3 487.7 746.8 486.2C782.3 484.7 817.7 481.3 853.2 480.5C888.7 479.7 924.3 481.3 942.2 482.2L960 483L960 541L942.2 541C924.3 541 888.7 541 853.2 541C817.7 541 782.3 541 746.8 541C711.3 541 675.7 541 640 541C604.3 541 568.7 541 533.2 541C497.7 541 462.3 541 426.8 541C391.3 541 355.7 541 320 541C284.3 541 248.7 541 213.2 541C177.7 541 142.3 541 106.8 541C71.3 541 35.7 541 17.8 541L0 541Z" fill="#6600ff"></path></svg>